# xmcd
#
# Track frame offsets:
# 150
# 27185
# 49819
# 69223
# 91896
# 111025
# 122977
# 143119
# 160898
# 178009
# 199312
# 213567
# 236705
# 267297
# 285463
# 306573
# 329133
#
# Disc length: 4598 seconds
#
# Revision: 0
# Processed by: cddbd v1.5.2PL0 Copyright (c) Steve Scherf et al.
# Submitted via: Audion 3.0.2 (http://www.panic.com/audion/)
#
DISCID=0611f411
DTITLE=Grace Jones - Essential
DYEAR=1900
DGENRE=
TTITLE0=My Jamacan Guy
TTITLE1=Delete
TTITLE2=Walking In The Rain
TTITLE3=Use Me
TTITLE4=Night Clubbing
TTITLE5=Art Groupie
TTITLE6=Strange
TTITLE7=Feel UP
TTITLE8=I've Done It Again
TTITLE9=Pars
TTITLE10=Breakdown
TTITLE11=Private Life
TTITLE12=Nipple to the Bottle
TTITLE13=Demoliton Man
TTITLE14=Love Is A Drug
TTITLE15=Pull Up To My Bumper [Party Mix]
TTITLE16=Delete
EXTD=
EXTT0=
EXTT1=
EXTT2=
EXTT3=
EXTT4=
EXTT5=
EXTT6=
EXTT7=
EXTT8=
EXTT9=
EXTT10=
EXTT11=
EXTT12=
EXTT13=
EXTT14=
EXTT15=
EXTT16=
PLAYORDER=
